<?xml version="1.0" encoding="utf-8"?>
<!-- Generator: Adobe Illustrator 26.0.1, SVG Export Plug-In . SVG Version: 6.00 Build 0)  -->
<svg version="1.1" id="Слой_1" xmlns="http://www.w3.org/2000/svg" xmlns:xlink="http://www.w3.org/1999/xlink" x="0px" y="0px"
	 viewBox="0 0 283.46 85.04" style="enable-background:new 0 0 283.46 85.04;" xml:space="preserve">
<style type="text/css">
	.st0{fill:#C4161C;}
</style>
<g>
	<path class="st0" d="M46.125,42.104c0,5.453-4.42,9.873-9.873,9.873s-9.873-4.42-9.873-9.873s4.42-9.873,9.873-9.873
		S46.125,36.651,46.125,42.104z M60.162,41.364l-8.488-8.488c-0.52-0.501-2.185,0.087-1.41,1.41
		c1.294,2.314,2.039,4.978,2.039,7.818c0,2.84-0.745,5.504-2.039,7.818c-0.714,1.267,0.837,1.947,1.41,1.411l8.488-8.489
		C60.571,42.435,60.571,41.772,60.162,41.364z M35.511,18.193l-8.488,8.488c-0.501,0.52,0.087,2.185,1.41,1.41
		c2.314-1.294,4.978-2.039,7.818-2.039s5.504,0.745,7.818,2.039c1.267,0.714,1.947-0.837,1.411-1.41l-8.489-8.488
		C36.583,17.784,35.92,17.784,35.511,18.193z M12.34,42.844l8.488,8.488c0.52,0.501,2.185-0.087,1.41-1.41
		c-1.294-2.314-2.039-4.978-2.039-7.818s0.745-5.504,2.039-7.818c0.714-1.267-0.837-1.947-1.41-1.411l-8.488,8.489
		C11.932,41.772,11.932,42.435,12.34,42.844z M36.992,66.015l8.488-8.488c0.501-0.52-0.087-2.185-1.41-1.41
		c-2.314,1.294-4.978,2.039-7.818,2.039c-2.84,0-5.504-0.745-7.818-2.039c-1.267-0.714-1.947,0.837-1.411,1.41l8.489,8.488
		C35.92,66.424,36.583,66.424,36.992,66.015z M104.109,39.424v5.359c0,8.165-3.72,9.157-10.901,9.157h-11.13
		c-7.18,0-10.901-0.992-10.901-9.157v-5.359c0-8.165,3.72-9.157,10.901-9.157h11.13C100.389,30.267,104.109,31.259,104.109,39.424z
		 M96.044,38.773c0-1.619-0.546-2.555-4.501-2.555h-7.799c-3.955,0-4.501,0.937-4.501,2.555v6.661c0,1.619,0.546,2.555,4.501,2.555
		h7.799c3.955,0,4.501-0.937,4.501-2.555V38.773z M159.331,45.466v1.411c0,3.901-1.84,7.064-9.385,7.064h-19.004
		c-0.418,0-0.757-0.339-0.757-0.757v-17.11h-7.065c-0.665,2.118-3.084,9.812-3.693,11.641c-1.037,3.118-2.799,6.127-7.976,6.225
		c-0.848,0-3.431,0-3.431,0c-0.418,0-0.757-0.339-0.757-0.757v-4.596c0-0.418,0.339-0.757,0.757-0.757h1.374
		c0.974,0,2.515-0.764,2.947-2.104c0.367-1.14,2.395-7.711,2.994-9.652h-3.209c-0.418,0-0.757-0.339-0.757-0.757v-4.293
		c0-0.418,0.339-0.757,0.757-0.757h25.364c0.418,0,0.757,0.339,0.757,0.757v7.378h11.7
		C157.491,38.402,159.331,41.565,159.331,45.466z M151.268,45.993c0-0.985-0.58-1.784-2.959-1.784h-10.063v3.924h10.063
		c2.379,0,2.959-0.799,2.959-1.784V45.993z M192.867,46.959c0,3.854-1.927,6.978-10.168,6.978l-20.202,0.004
		c-0.418,0-0.757-0.339-0.757-0.757v-17.11h-1.789c-0.418,0-0.757-0.339-0.757-0.757v-4.293c0-0.418,0.339-0.757,0.757-0.757h23.002
		c7.113,0,8.776,2.837,8.776,6.338c0,1.858-0.48,3.524-1.984,4.684C192.146,42.554,192.867,44.619,192.867,46.959z M169.801,36.074
		v2.857h12.617c0.789,0,1.429-0.64,1.429-1.429s-0.64-1.429-1.429-1.429H169.801z M184.79,46.17c0-0.789-0.64-1.429-1.429-1.429
		l-13.561-0.003v3.391h13.561c0.789,0,1.429-0.64,1.429-1.429V46.17z M231.162,30.267h-2.311h-4.24h-3.358
		c-0.993,0-1.695,0.397-2.25,0.973l-14.952,16.258V31.024c0-0.418-0.339-0.757-0.757-0.757h-6.551c-0.418,0-0.757,0.339-0.757,0.757
		v22.159c0,0.418,0.339,0.757,0.757,0.757h2.311h4.24h3.354c0.937,0,1.66-0.338,2.226-0.943l14.98-16.289v16.474
		c0,0.418,0.339,0.757,0.757,0.757h6.551c0.418,0,0.757-0.339,0.757-0.757V31.024C231.919,30.606,231.58,30.267,231.162,30.267z
		 M269.415,31.024v4.278c0,0.418-0.339,0.757-0.757,0.757h-1.928v17.124c0,0.418-0.339,0.757-0.757,0.757h-6.551
		c-0.418,0-0.757-0.339-0.757-0.757v-6.375h-9.306l-5.839,6.374c-0.423,0.418-1.184,0.757-1.7,0.757h-7.477
		c-0.865,0-1.136-0.897-0.544-1.462l6.533-6.462c-3.681-1.298-5.007-4.063-5.007-7.275v-0.406c0-4.456,2.527-8.068,10.397-8.068
		h22.935C269.076,30.267,269.415,30.606,269.415,31.024z M258.664,36.059h-13.013c-1.718,0-2.27,1.083-2.27,2.418v0.122
		c0,1.335,0.552,2.418,2.27,2.418h13.013V36.059z"/>
</g>
</svg>
